<svg xmlns="http://www.w3.org/2000/svg" xmlns:xlink="http://www.w3.org/1999/xlink" viewBox="0 0 783.85 468.35"><defs><style>.cls-1{fill:none;}.cls-2{clip-path:url(#clip-path);}</style><clipPath id="clip-path" transform="translate(-14.69 -8.72)"><rect class="cls-1" width="584.03" height="477.07"/></clipPath></defs><g id="Layer_2" data-name="Layer 2"><g id="Layer_1-2" data-name="Layer 1"><g class="cls-2"><path d="M101.3,333.83c1.87.09,4.12.23,6.37.28a4.26,4.26,0,0,0,3.46-1.59,6,6,0,0,1,4.1-2.26c.27.85.48,1.52.75,2.35.49-.24,1-.32,1.1-.57,1.89-3.31,4.25-6.39,4.59-10.44.14-1.67,1.19-3.23,1.51-4.91a40.73,40.73,0,0,0,.09-4.43c.19-2.91,1.88-5.2,3.31-8-.62-.91-1.36-2.07-2.19-3.18-1.24-1.65-1.18-2.08.57-3.6a11.47,11.47,0,0,0,1.13-1.31,23,23,0,0,0-3-2.82c-3-1.95-3.25-5.09-3.4-8.07a10.9,10.9,0,0,0-1.79-6.1c-1.22-1.65-.51-2.87,0-4.41.68-2,2.17-1.73,3.66-1.68.19,0,.37-.06.18,0,3.17-3.26,5.89-6.58,9.17-9.17a58,58,0,0,0,4.79-3.72c.85-.82,1.73-1.61,2.6-2.42,3.42-3.17,7-6.21,10.22-9.56,3-3.16,5.74-6.65,8.58-10,1.44-1.72,2.86-3.44,4.25-5.2a32.75,32.75,0,0,0,2.46-3.41c2-3.33,4-6.7,5.91-10.08a9,9,0,0,0,1.31-2.77,7.27,7.27,0,0,1,2.5-4c.39-.38.93-.76,1.06-1.23.65-2.39,2.39-4.54,1.87-7.17-.46-2.29,1.22-3.82,1.85-5.7,1-3.09,2.78-5.95,4.1-9,2-4.51,3.83-9.07,5.8-13.57,1.5-3.44,3.1-6.83,4.64-10.24a8.18,8.18,0,0,0,.66-1.83,8.78,8.78,0,0,1,3.87-5.67,8.22,8.22,0,0,0,2.36-3.66c2.49-6.63,4.75-13.35,7.26-20,1.68-4.45,3.65-8.79,5.44-13.2,1.85-4.57,3.59-9.17,5.46-13.73a30.2,30.2,0,0,1,1.77-3.11c1.85-3.34,3.67-6.7,5.56-10a3.18,3.18,0,0,1,1.33-1.12c1.94-1,3.9-1.87,5.89-2.71a3.66,3.66,0,0,1,4.18.68,16.91,16.91,0,0,0,2.1,1.88,6.06,6.06,0,0,0,2.68,1.24,18.77,18.77,0,0,1,8,2.27c1.68.89,4,.45,6.11.63,1.76.16,3.53.32,5.27.59a7.78,7.78,0,0,1,2,.83,23.43,23.43,0,0,0,5.68,1.9c3.9.76,8.06.62,11.68,2.76a12.67,12.67,0,0,0,3.8,1,21,21,0,0,1,8,3.79c.37.28.92.63,1,1,.44,3.9,2.83,7.39,2.33,11.59,0,.25-1,.41-1.5.58-1.59,6.84-5,12.9-7.29,19.61a7.64,7.64,0,0,0,1.84.29c2.48-.23,3.94,2.16,6.24,2.38a1.82,1.82,0,0,1,.33,1.44c-1.65,2.48-1.5,5.87-4,7.89a8.53,8.53,0,0,0-2.79,4.23,3.79,3.79,0,0,1-1.14,1.54c-1.32,1.2-2.68,2.36-4.06,3.49-2.08,1.7-4.19,3.35-6.54,5.22,1.46.37,2.74.73,4,1,1.53.32,2.52,1,2.66,2.76a16.18,16.18,0,0,0,.94,3.48,4.71,4.71,0,0,1-1.56,5.27,54.61,54.61,0,0,1-8.88,6.1c-1.19.6-2.13,1.07-3-.51-.32-.57-1.42-.68-2.24-1l-1.17,2.35c1.49,1.49,3.28,1.76,5.52,1.54.24,2.73.6,5.33.64,7.94,0,2.34-2.23,4.52-4.78,4.62-1.64.06-2.82.31-2.76,2.35-3.22-.55-4.94,1.83-7,3.27a104.87,104.87,0,0,0-10.1,7.84c-2.66,2.39-6,3.24-9,4.71-1.81.87-3.58,1.87-5.39,2.71s-3,3-4.27,4.81a82.41,82.41,0,0,0-6.63,10.34c-1.32,2.65-3.51,4.65-4.66,7.38-.74,1.74-2.19,3.15-3.22,4.78-1.34,2.12-2.55,4.32-3.87,6.46s-2.69,4.1-4,6.19c-1.65,2.71-3.24,5.46-4.85,8.19-1.41,2.4-2.84,4.79-4.21,7.21-.45.81-.67,1.74-1.11,2.56-1,1.89-2.37,3.65-3.06,5.65-1.21,3.5-3.34,6.55-4.42,10.15-.88,3-2.86,5.61-4.31,8.42-1,1.9-1.86,3.86-2.85,5.75-.69,1.31-1.52,2.54-2.24,3.83-.47.85-1.3,1.06-1.87.55a2.22,2.22,0,0,1-.28-2c.63-1.78,1.47-3.49,2-5.36a3.43,3.43,0,0,0-2.34,3.06,9.42,9.42,0,0,1-2,5,39.47,39.47,0,0,0-3.17,5.64h-3.29c.22-1.14.4-2.09.62-3.25-1.3-.19-2.54-1.1-3.84.2a1.37,1.37,0,0,1-1.1.08c-2.83-.91-5.91-1.24-8.13-3.54-.38-.4-.91-.66-1.3-1.05-2.42-2.43-2.74-1.87-5.77.49a17.6,17.6,0,0,1-3.85,2.57c-1.23.5-2.68.72-3.65-1a2.65,2.65,0,0,0-2.81-1.42c-.69,1.63-1.37,3-1.87,4.47a21.7,21.7,0,0,0-1,3.79c-.45,2.94-.8,5.9-1.2,8.85-.23,1.7-1.4,1.71-2.81,1.35-1.31,4.73-4.72,7.49-8.51,10.14-4.15,2.89-8.7,3.74-13.52,3.95a8.93,8.93,0,0,0-3.79.79,9.45,9.45,0,0,1-7.11.57,3.2,3.2,0,0,0-1.1-.21c-5.17.18-8-3-10.12-7.1a62.66,62.66,0,0,1-2.81-5.84c-1.5-3.76-.84-7.69-.61-11.57.17-3,.55-6,.45-9-.08-2.72-.91-5.42-1-8.15-.09-3.54-1.48-6.74-2.22-10.1a21.72,21.72,0,0,0-2.71-6.64,17.63,17.63,0,0,0-4-3.81A17.38,17.38,0,0,0,64.6,281a17.34,17.34,0,0,0-6,1.22c-.85.34-1.34,1.78-1.85,2.78S56,287,55.57,288.15c1.12.73,2.36,1.69,1.12,3.66-4.61.41-9.5.3-14.1,2.19-.24,1.85-.5,3.69-.72,5.53-.31,2.65-2.42,3.92-4.82,2.71A5.37,5.37,0,0,0,33,301.9c-2.11.57-4.26,1-6.29,1.43a35.91,35.91,0,0,1-1.56-5.8c-.13-1.15.64-2.39,1-3.53l-10.46-1.29c-.54-2.55-.54-2.55,1.39-3.38-1-1.21-1.61-2.45-.8-4.06a6.18,6.18,0,0,0,.1-2.52c0-1.05-.07-2.07,1.24-2.54a.87.87,0,0,0,.33-1.56c-1.72-1.11-1-2.72-.89-4.07.19-2.31.73-4.59,1.17-7.15-.72,0-1.33,0-1.92-.11a1.65,1.65,0,0,1-1.59-1.94c.08-1.08.83-1.34,1.77-1.4,2.24-.17,4.51-.22,6.72-.6,5.14-.89,10.24-2,15.39-2.87a34.16,34.16,0,0,1,6.48-.22c2.43.07,4.85.36,7.28.52,1.92.13,2.32.49,2.18,2.42-.09,1.17-.39,2.33-.6,3.55,2.2,1,4.3.64,6.3.43a20,20,0,0,1,11.71,2.32c.77.42,1.12.82,2,.47a3.35,3.35,0,0,1,1.9.19c4.6,1.28,8,4.33,11.06,7.77a26.87,26.87,0,0,0,2.89,3,25.76,25.76,0,0,1,8.62,13.43,8.27,8.27,0,0,1,.33,2.21c0,4.06,0,8.12,0,12.18,0,1.7-1,3.47.29,5.11-1.6,1.64-.4,3.76-1,5.6a37.34,37.34,0,0,0-.86,4.36c-.07.37-.24.81-.11,1.09C98.49,327.81,98,331.39,101.3,333.83Zm54.81-28.38a3.06,3.06,0,0,0,2.27,2.43,29,29,0,0,1,3.32,2,39.51,39.51,0,0,0,4,2c.94.4,2,.5,3,.85,2.65.94,2.78.86,3.86-1.88.89-2.24,1.82-4.49,2.88-6.66,1.71-3.48,3.52-6.93,5.35-10.35s3.63-6.66,5.48-10c2.1-3.75,4.69-7.19,6.94-10.83,3.68-5.94,8-11.48,11.07-17.81,2.28-4.68,6.14-8.39,8.54-13,.74-1.43,2.23-2.45,3.13-3.82,2.71-4.12,5.27-8.35,8-12.49,1.21-1.87,2.78-3.54,3.85-5.48a14.83,14.83,0,0,1,6-5.55c2-1.18,4.06-2.4,6.16-3.45,1.49-.73,3.13-1.14,4.65-1.8,3.06-1.31,6.53-1.63,9.18-4,1.56-1.37,3.31-2.52,5-3.78l-.29-.56a18.44,18.44,0,0,0-9.34,2.33c-.45-.28-.78-.46-1.08-.67a5.11,5.11,0,0,0-7.17.82,23,23,0,0,1-2,1.94,1.55,1.55,0,0,1-2.45-.14c-.33-.53,0-1.58.27-2.32.12-.36.74-.53,1.1-.82.62-.52,1.23-1.07,2-1.78A8,8,0,0,0,238,199.4c-1.87-.56-3.79-.93-5.63-1.55a9.82,9.82,0,0,1-2.56-1.56c-.58-.42-1-1.37-1.59-1.42-1.74-.16-3-1.19-4.5-1.86a39.59,39.59,0,0,0-5.17-2.08c-2.32-.71-4.76-1-7.05-1.8-2.82-.94-5.46-1.21-7.85.9-.63.55-1.12,1.24-1.71,1.84-.76.77-1.57,1.39-3,.31l3.82-4.86-8.23-3.57c-1.65,2.51-3.3,5.2-5.13,7.76-1.52,2.12-2.63,4.31-2.42,7,0,.12-.21.25-.32.38-3.31-.53-4.7,1.54-3.65,5.61a2.63,2.63,0,0,0-1.5,2.27c-.14,3.62-.69,7.24-1,10.86-.17,1.82-1,2.73-3.06,3.36-.63-.66-.06-2.26-1.49-2.18-1,1.34-2,2.53-2.9,3.82-2,3-4,6.09-6,9.15-.66,1-1.2,2.09-1.93,3-1.85,2.37-3.77,4.68-5.66,7-.52.65-1,1.33-1.56,2-2.42,2.69-5.32,5.08-7.17,8.12-2.37,3.87-6,6.42-8.76,9.89-1.19,1.52-3.15,2.43-5,3.76v3.22l-3.25-1.41c-1.81,1.57-3.85,3.07-5.56,4.88-1.4,1.49-3.29,2.76-3.56,5.31,1,1.15,2.4,2.25,3,3.7,1.3,3.33,4.31,5.25,6.12,8.11.14.22.48.3.68.49,2.85,2.54,5.82,5,8.47,7.69,1.41,1.44,2.77,2.44,4.87,2.29.07,2.25,2.18,2.79,3.14,4.22C152.18,306,154.1,305.57,156.11,305.45Zm84.53-172.63c3.58-1.31,3.6-1.43,7.07-.84,2.4.4,5,.82,6.62,2.83,2.6,3.26,3.78,7.25,4.75,11.26a8.76,8.76,0,0,1,.5,3.3c-.84,4.82-2.15,9.48-6,12.94a4.93,4.93,0,0,0-1,1c-1,1.67-2.62,2-4.38,2.07l-8.73.19c-2.13,0-2.13,0-2.89,2.55a8.09,8.09,0,0,1,2.11,1.2c2.18,2.26,2.5,5.3,2.49,8.14,0,2.44-2.22,4.19-4,5.52a9.62,9.62,0,0,1-8.77,1.58,2.69,2.69,0,0,0-2.09.25,4.77,4.77,0,0,1-4.08.54c-2.9-.71-5.58.59-8.43.37a9.64,9.64,0,0,0,4.9,1.86c1.56.25,3.11.46,4.35,1.66.43.41,1.2.46,1.79.73,2.26,1.05,4.55,2,6.73,3.23a15.82,15.82,0,0,0,3.78,1.72c3.44.86,6.84,1.93,10.2,3.11a5.13,5.13,0,0,0,4-.06c.77-.35,1.67-.41,2.38-.82,1.44-.83,2.27-.25,2.82,1,.78-.52,1.51-1,2.25-1.5,1.85-1.23,3.71-2.34,4.3-4.82a20.52,20.52,0,0,1,2.11-4.87c.66-1.24,1.06-2.35.22-3.65-.16-.26,0-.72,0-1.15l2.22-.77c.1-1.17.2-2.28.31-3.59,1.66-.06,2.39-1.25,2.83-2.63.61-1.93,1.11-3.9,1.69-5.85a4.44,4.44,0,0,1,.63-1.55c2-2.48,2.94-5.46,4-8.4a32.16,32.16,0,0,1,1.46-3.3c.78-1.63,1.73-3.2,2.38-4.89,1.34-3.48,2.5-7,3.76-10.55,2.35-6.53,3.92-13.33,7-19.62,1.2-2.49,1.7-4.93-.49-7.2-.11-.12-.09-.37-.17-.54a9.76,9.76,0,0,0-5.77-4.76c-5.94-2.27-12-4.37-18.46-4.7a4.59,4.59,0,0,1-1.75-.83,17.08,17.08,0,0,0-7.43-2.27c-3.7-.19-7.47-.46-10.84-2.41a5.37,5.37,0,0,0-2.4-.64c-3.68-.15-7.3-.38-10.62-2.29-.95-.54-1.82-.21-2.72.7-1.8,1.81-2.32,4.23-3.33,6.39a41.27,41.27,0,0,0-1.87,6.5L222,107.51c-1.26,3.1-2.6,6.19-3.79,9.34-1.63,4.26-3.13,8.58-4.73,12.85-.77,2.07-1.63,4.09-2.48,6.13-.42,1-1,2-1.34,3-.64,1.82-2.33,3.45-.66,5.67.69.92-.06,2-1,2.59a5,5,0,0,0-2.3,3.18c-.76,2.58-1.85,5.06-2.86,7.56-.83,2.06-1.81,4.06-2.59,6.14a13.52,13.52,0,0,1-1.76,3.94,2.67,2.67,0,0,0-.5,1.82,3.19,3.19,0,0,1-.89,2.79,5.11,5.11,0,0,0-.64,1.87,5.54,5.54,0,0,0,1.74-1.86,13.4,13.4,0,0,1,2.27-2.42c1.62-1.21,3.36-2.25,5.05-3.37l-.53-.37a16.81,16.81,0,0,1,.36-3.79c.63-1.93,1.69-3.72,2.4-5.63,1.33-3.58,3.54-6.83,4-10.75a10,10,0,0,1,1.08-2.58c.7-1.59,1.49-3.16,2.11-4.78,1.55-4.12,3-8.25,4.52-12.39.5-1.39.87-2.83,1.34-4.23.7-2,1.38-4.07,2.19-6.07a2.13,2.13,0,0,1,1.27-1c1.58-.42,1.69-1.56,1.61-2.86-.16-2.82.72-5,4-5.56a11.21,11.21,0,0,1-.74-1.09c-.81-1.46-.51-2.33,1-2.24a39.27,39.27,0,0,0,6,0,26.65,26.65,0,0,1,5,.47c5.63.54,11.11,1.55,16,4.68a13,13,0,0,0,2.81,1.29c1.68.57,3.44.91,5.09,1.56,4.3,1.72,8.32,4.16,13,5a2.84,2.84,0,0,1,1.19.74c1.44,1.33,3,1.8,4.79.75.1-.06.33.13.48.2.41,1.05.83,2.07,1.22,3.11.48,1.29.75,2.74-.27,3.75-1.49,1.48-1.9,3.36-2.58,5.2-1.39,3.74-2.95,7.43-4.36,11.17-1.47,3.91-2.74,7.9-4.31,11.77-2.59,6.41-5.33,12.77-8,19.13-1,2.33-2.13,4.59-3.13,6.92a43.23,43.23,0,0,0-2.11,5.43c-.79,2.77-2.52,3.83-5.37,3.13-3.44-.83-7-1.37-10.34-2.44-1.48-.47-3.55.34-4.52-1.75.6-1.56,2-1.23,3.11-1.11a35.54,35.54,0,0,1,6.06,1.12c2.06.6,3.61-.26,5.3-1.14,1.41-.73,1.35-1.82,1.26-3.1a1.22,1.22,0,0,1,1.42-1.37,18.27,18.27,0,0,1,1.94.28l3.8-8.94c.19-.43.27-1,.6-1.25,1.38-1,1.25-2.65,1.8-4,.35-.86.51-1.79.87-2.64,1.46-3.49,3-6.93,4.43-10.43.81-2,1.35-4.07,2.19-6,1.66-3.88,3.42-7.77,4.21-11.88.69-3.58,3-6.55,3.12-10.46L276.9,120c.64,2,1.05,3.24,1.64,5-1.26-.35-2.52-.38-2.67-.81-.66-1.8-2.3-2.31-3.66-3-3.94-2-7.53-4.56-11.81-6.06a230.88,230.88,0,0,0-22.86-6.85,44.34,44.34,0,0,1-4.38-1.56c-.82.9-2.21,1.88-2.84,3.21a51.12,51.12,0,0,0-2.94,8.15c-1.61,5.91-4.75,11.16-6.93,16.82-.81,2.09-1.73,4.14-2.69,6.16-1.21,2.55-.86,5.8-3.47,7.73-.2.14-.23.5-.34.76-1.4,3.36-2.8,6.73-4.21,10.08-1,2.29-2,4.57-3,7.06a18.45,18.45,0,0,0,2.46.09q6.71-.69,13.4-1.47a2.59,2.59,0,0,0,1.54-.55c1.37-1.48,3-1.34,4.66-.94.47,1.32.59,2.47-.91,3.33l7.14.51c-.29-.68-.58-1-.55-1.34.41-3.29.81-6.58,1.38-9.84a2,2,0,0,1,1.61-1.16c.45,0,1,.94,1.19,1.55a29.6,29.6,0,0,1,.46,3.8c4.58.88,6.16-.13,7-4.26a2.84,2.84,0,0,1,.54-1.24,2.11,2.11,0,0,0,.11-2.81c-.65-1-1.27-2.06-1.91-3.09a9.75,9.75,0,0,1-4.05-1.07c-2-1-2.59-1-3.75.18a17,17,0,0,0-3.54,6.29c-.72,2.09-.51,2.16-2.88,2.24-.14-.68-.29-1.39-.43-2.09l-2-.57c-.43-1.92-.52-3.79-1.28-5.33-1.55-3.15-3.07-6.36-5.45-9-1.14-1.28-1-1.92.51-2.89s3-1.87,4.49-2.87a28.35,28.35,0,0,0,8.32-8.81,2.46,2.46,0,0,1,1.41-.76,18.46,18.46,0,0,1,2.19-.35c.78-2.77.78-2.77,2.29-2.45C242.08,125.37,240.84,129,240.64,132.82Zm-205.26,148,.15.89a7.28,7.28,0,0,0,2.52.77c4.38-.42,8.75-1,13.11-1.55a6.28,6.28,0,0,0,2-.86c1.38-.72,2.45-2,4.25-2,4.38.09,8.79-.78,13.15.33a2.29,2.29,0,0,0,1.09.11c1.92-.47,3.28.59,4.47,1.76,1.8,1.76,3.35,3.78,5.2,5.48,2.57,2.37,4.3,5.07,4.51,8.63a5.13,5.13,0,0,0,.54,1.6c1.78,4,2.25,8.28,2.58,12.56.2,2.73.19,5.47.19,8.2,0,1.54.56,3,.11,4.65a17.78,17.78,0,0,0-.7,6.66c.35,2.69.17,5.66,2.33,7.92a7.09,7.09,0,0,1,1.42,2.42c1,2.7,2.45,4.61,5.74,4a1.57,1.57,0,0,1,.78.26c2.13,1,4.24.39,6.36-.07a11.11,11.11,0,0,1,5.16-.39,14.61,14.61,0,0,0,9.36-1.2c3.64-1.76,7.12-3.95,9.07-8.07,2.34-5,4.05-9.91,3.56-15.49a8.87,8.87,0,0,1,.69-3.26c.34-1.05.87-2,1.41-3.28a29.9,29.9,0,0,0-3.61-2.63,1.81,1.81,0,0,0-2.72,1.47c-.35,2.2-.53,4.43-1,6.61-.58,2.81-.6,5.79-2.41,8.25a2.78,2.78,0,0,0-.48,1.31c-.25,2.68-1.93,4.78-3.44,6.65a10.24,10.24,0,0,1-6.08,4.13c-5.46,1-10.91.27-16.38.61a37,37,0,0,1-4.61-10.88,8.53,8.53,0,0,1-.19-2.25c.12-2.94,1.31-5.7,1-8.77-.2-2.41.38-4.89.44-7.38,0-1.66-.63-3.35-.12-4.89,1.05-3.14.26-6.09-.75-8.93a20.64,20.64,0,0,0-3.53-6.59c-2.84-3.31-6.12-6.25-9.24-9.31-.64-.63-1.42-1.12-2.08-1.73-3.5-3.17-8.25-3.3-12.38-4.88-2.75-1.05-6.07-.61-9.14-.83l-4.17-.32c-.79,1.38.54,3.58-1.9,3.78-1.82.14-1.55-1.51-1.94-2.63-2.26,1.18-4,3.15-6.61,3.56a2.15,2.15,0,0,0-1.15.79C40.23,278.24,38.4,280.28,35.38,280.83Zm15.28-15.91c-1.11-.12-2.06-.18-3-.35a32.72,32.72,0,0,0-13.32.74c-2.26.51-4.57.8-6.86,1.22-1.9.34-3.8.72-5.33,1a21.51,21.51,0,0,1,.35,3.95c-.35,3.34-.91,6.65-1.33,10-.33,2.65-.59,5.32-.9,8.13.84.06,1.39.12,1.93.13a64.51,64.51,0,0,1,7.62.06A49.67,49.67,0,0,0,49,288.31a29.94,29.94,0,0,1,3.56-.53l.36-3.56-.57-.06-.56,2.69c-.85-.38-1.46-.67-2.09-.93-.47-.19-1-.54-1.41-.46a26.46,26.46,0,0,0-5.43,1.34,8.4,8.4,0,0,1-4.68.5c-1.17-.16-2.32-.58-3.43.48-.32.31-1.48.08-2-.26a4.38,4.38,0,0,1-2.22-4c-.06-3.29,1.5-6.15,2.09-9.26a3.7,3.7,0,0,1,1.74-2.11,3.52,3.52,0,0,1,2.46-.19c.66.18,1.18.91,1.92,1.55,1.73-.84,3.9-1.36,5.26-2.7a19.85,19.85,0,0,1,5.32-3.38A2.2,2.2,0,0,0,50.66,264.92ZM235.24,144.64c1.66,0,3.18.11,4.67,0,3.44-.31,5.88,1.41,8.11,3.71,2.06,2.12,2.31,4.67,1.62,7.3-.57,2.19-1.49,4.28-2.31,6.57a7.07,7.07,0,0,0,4.91-3.06,80.6,80.6,0,0,0,4.17-7.85,4.24,4.24,0,0,0,.17-2.43A40.46,40.46,0,0,0,253,139.2a5.54,5.54,0,0,0-4.56-3.54,13.84,13.84,0,0,1-2.14-.65c-1.33-.43-2.6-.92-4.06-.18-.56.28-1.47-.12-2-.18-.45.45-.8,1.1-1.13,1.09a1.44,1.44,0,0,1-1.55-1.61,32.56,32.56,0,0,1,.73-4.93,5.16,5.16,0,0,0,0-3.36A39.58,39.58,0,0,1,227,137.93a2.2,2.2,0,0,0-.07.46c1,2.91,2,5.83,3,8.71.15.42.82.67,1.27,1s.92.53,1.44.83Zm-37.82,35.9a24.32,24.32,0,0,0,2.14,1.75c1.88,1.21,3.85,2.3,6.2,1.43.84-.32,1.59-.89,2.41-1.27,2.29-1,4.52-2.4,6.92-3s4.74-.17,7.11-.28a3.46,3.46,0,0,0,2-.57c1-.86,1.15-4.18.47-5.36-.58-1-3.91-3-4.72-2.54-1.65.93-3.3.27-4.93.38-2.29.16-4.57.27-6.86.4a6,6,0,0,0-5.65,3.73,3.7,3.7,0,0,1-1,1.11C200.06,177.65,197.81,178.15,197.42,180.54ZM129.89,300.65c.49,2.58,2.3,3.89,4.46,4.94a9.83,9.83,0,0,1,2.55,1.71,3.23,3.23,0,0,0,2.74,1c1.85-.1,3.65.11,4.84,2.06a2.55,2.55,0,0,0,3.32.69l1.47-2.44c-1.08-.8-2-1.93-3-2.14-1.91-.37-2.93-1.78-4.23-2.84-2.83-2.27-5.56-4.66-8.34-7-.11-.09-.37,0-.5,0Zm154.8-156c-1.09,3-2,5.61-3,8.17-1.22,3-2.59,5.92-3.9,8.88a2.92,2.92,0,0,0,1.8-.95c2.43-2.73,4.87-5.46,7.23-8.26a27,27,0,0,0,2.91-4.08,2.44,2.44,0,0,0-2.18-3.75C286.61,144.6,285.68,144.64,284.69,144.64ZM237.05,179.7c.52-1.32,1-2.41,1.38-3.52a2.29,2.29,0,0,0,.16-1.06,5.82,5.82,0,0,0-6.88-4.67c-.25,1.57-.93,3.21-.65,4.67.48,2.49.91,4.8-1.49,7.11,1.45,0,2.44.27,3.17,0A43.73,43.73,0,0,0,237.05,179.7Zm36.73-7.59c-1.57,3.7-3,7.06-4.57,10.83.83-.25,1.17-.32,1.49-.45,2.47-1,5.13-1.35,7.37-3.13,1.65-1.31,2.73-1.92,2.09-3.46a8.17,8.17,0,0,0-2.65-3.47C276.51,171.73,275,171.16,273.78,172.11ZM38.88,298.46v-4H30.49c.41,1.51.78,2.87,1.08,4Zm90-3.45c1.15-.73,1.49-1.42.37-2.44-.88-.8-1.6-1.78-2.41-2.67-1.76-1.93-3.21-4.19-5.84-5.61A14.68,14.68,0,0,0,128.84,295ZM265.71,191.07l-3.1,7.81a18,18,0,0,0,5.36-6.34Z" transform="translate(-14.69 -8.72)"/><path d="M431.75,156.52c.16.31.24.39.23.47-.15,2.87,1,5.55,1.29,8.36A13.07,13.07,0,0,0,434.4,170c2.14,4.22,2.89,8.83,4.17,13.22-1.71,1.43-1.86-.37-2.9-1.31.12,1.18.18,2,.31,2.8.58,3.73,1.38,7.36.77,11.28-.5,3.28.13,6.75.34,10.13.09,1.57.46,3.14.53,4.71.2,4.65,1.72,8.82,3.7,13a114.39,114.39,0,0,0,6.89,13.34c1,1.47,1.32,3.28,2.16,4.83,1.76,3.25,3.83,6.35,5.41,9.68.64,1.34.58,3,1.35,4.46,1.76,3.28,3.38,6.63,5.1,9.93a26.27,26.27,0,0,0,1.9,3.08c.81,1.14,1.27,2.45,3.09,2.87,1.19.27,2.24,1.73,2.35,3.46a11.36,11.36,0,0,0,1.16,3.08,27,27,0,0,0,1.43,3.6c2.07,3.64,3.94,7.44,7.26,10.2a3.44,3.44,0,0,1,1.42,3.2,4.78,4.78,0,0,0,1.1,3.05,23.73,23.73,0,0,0,5,5.56c1.46,1.28,1.08,2.27-.25,3.77a82.33,82.33,0,0,1-7.86,7.09c-1.26,1.08-2.62,2.05-4,3-2.16,1.56-4.35,3.08-6.64,4.7.54,2.33,1,4.7,1.64,7,.41,1.47,0,1.87-1.46,2.3a72.42,72.42,0,0,0-7.54,3c-.38.16-.63.66-.73.76.2,1.75.32,3.22.54,4.68a10,10,0,0,0,2.85,6.11c1.57,1.52,2.56,3.61,4,5.32a5.73,5.73,0,0,0,2.61,1.94c2.51.71,5.12,1,7.65,1.64,3.46.88,6.37-.63,9.35-1.92.33-.14.54-.6.87-.7,3.3-1,4.4-3.7,5.32-6.65s2-5.83,3.08-8.73c.75-2.1,1.2-4.38,2.35-6.22,2.19-3.48,2.7-7.51,4.27-11.18a44,44,0,0,0,1.73-6.73A4,4,0,0,1,505,312c2.26-3.08,3-6.78,4.23-10.26a19.65,19.65,0,0,1,1.15-2.17,35.85,35.85,0,0,0,2.43-7.1c1.12-3.9,2.09-8,4.72-11.35s5.19-6.59,7.83-9.84a2,2,0,0,1,1.43-.69c1.67.15,2.35-.15,2-2.14-.16-1.08.79-2.32,1.31-3.66a36.92,36.92,0,0,1,12-1.94,3.88,3.88,0,0,1,1.41.05c3.52,1.56,7.24.88,10.88,1.08a9.93,9.93,0,0,1,3,.72,1.84,1.84,0,0,1,1.1,2.06,14.34,14.34,0,0,0,.12,4.09,23.45,23.45,0,0,1,0,9.44c-.35,2,0,4.15-.12,6.22s-.45,3.86-.67,5.72c-2.15.8-3.56-2.21-5.48-.55-1.73-.36-3.45-.9-5.37-.2-.12,1.27-.25,2.54-.39,4-1.53.1-2.94.13-4.34.28s-2.84.41-4.56.66a1.89,1.89,0,0,1-2.37,1.8c-1.33-.2-2-1-2.13-2.82-.08-.93-.18-1.87-.27-2.81a3.38,3.38,0,0,0-.24-.54h-4.8c-1.13,2-2.35,4.09-3.43,6.23a17.62,17.62,0,0,0-.85,3c-1.23,4.2-2.51,8.38-3.69,12.59-1,3.59-2,7.18-2.85,10.81-.79,3.33-1.33,6.72-2.09,10.06-.35,1.54-1,3-1.47,4.52a14.38,14.38,0,0,0-.8,2.4c-.75,5.49-3.44,10.25-5.62,15.21a2.27,2.27,0,0,1-.6.93,31.33,31.33,0,0,0-6.22,6.88c-1.49,2.1-4,1.79-6.08,2.5s-4.43.09-6.63.09c-3.94,0-7.89-.54-11.81-.38a22.31,22.31,0,0,1-6-.6c-2.63-.61-5.26-1.23-7.84-2a6,6,0,0,1-2.67-1.54c-1.67-1.85-4.23-2.86-5.15-5.43a2.59,2.59,0,0,0-.93-1c-2.45-1.78-3.36-4.37-4-7.18-.35-1.61-1.18-3.12-1.57-4.72-.42-1.8-.58-3.65-.87-5.56l-.71.17c-2.2.57-3.29-.19-3.74-2.36s-1.07-4.09-1.69-6.41c-2.64,1.94-4.85,1.43-6.93-.57a4.86,4.86,0,0,1-5.62,1.41c-1.32-.4-3-.74-4.2,1.16-.74,1.17-3.74.65-5.22-.36-2.3-1.58-4.64-3.1-7-4.6a1.79,1.79,0,0,0-2-.07c-1.33.68-2,.11-2.32-1.41l-4.2-20.48a4.71,4.71,0,0,1-.27-1.67c.49-2.92-1.09-5.47-1.38-8.24a34.47,34.47,0,0,0-2.78-10.79c-1.32-2.9-.81-6.28-2.83-8.88-.73-5.65-3.61-10.77-4.09-16.53-.15-1.88-1.12-3.72-1.82-5.54-1.16-3-2.51-6-3.58-9.09-.83-2.36-1.27-4.85-2-7.23-1.24-3.87-3.78-7-6.13-10.24-2.86-3.91-5.88-7.7-8.83-11.54s-6-7.86-9.05-11.78a11.15,11.15,0,0,0-1.85-2.13,12.74,12.74,0,0,1-4.32-6.08c-.33-.92-1.45-1.55-2.4-2.5-.56-4.2,1.5-6.81,6.26-7.52.55-.08,1.14,0,1.68-.14.71-.17,1.39-.47,2.09-.71-.16-1.23-.67-1.95-2-1.72a23.28,23.28,0,0,0-2.8.34c-5,1.48-7.21-2.6-7.41-5.86-.14-2.14-.1-4.19-1.07-6.29-1.08-2.34.31-4.56,3.54-5.61a17.38,17.38,0,0,1,3-.35c-1.5-1.61-2.69-2.86-3.85-4.13a29.65,29.65,0,0,1-3.29-3.82,68.55,68.55,0,0,1-6.29-12.7c-.95-2.62,1.23-7.37,3.91-8.5,1.1-.46,2.25-.83,3.44-1.26-1.28-3.37-2.78-6.57-3.7-9.94s-1.23-6.89-1.81-10.36l2.28-2.17c.34-.32.64-.84,1-.93,4.14-.9,6.86-4.52,10.88-5.62.17,0,.36-.27.5-.23,3,.68,5.38-2,8.34-1.66.19,0,.46.06.56,0,2.25-2.33,5.64-1.68,8.23-3.13a40.68,40.68,0,0,1,4.53-2.26c1.63-.67,3.41-1,5-1.68a44.5,44.5,0,0,1,14.71-3.08c3.28-.21,6.26.93,9.21,2.1.55.22.94.85,1.38,1.32,2.62,2.79,3.16,6.51,4.45,9.91.91,2.39,1.78,4.8,2.73,7.19,1.3,3.3,2.11,6.81,3.09,10.24.41,1.43.72,2.89,1.11,4.48l-1.18.94c2.54,8.65,5.08,17.3,7.71,26.23ZM404.57,290.06a69.29,69.29,0,0,1,1.54,7.57,53.4,53.4,0,0,0,1.85,9.89c.38,1.33.52,2.74.84,4.09.16.68.28,1.7.74,1.93,2.45,1.21,2.64,3.51,2.81,5.7A3.53,3.53,0,0,0,414,322a10.63,10.63,0,0,0,2.73,1.43,36.92,36.92,0,0,0,19.05,1.49c4.14-.76,8.4-.81,12.6-1.21,1.36-.14,2.7-.38,4.11-.59.17-.68.34-1.38.52-2.08a15.49,15.49,0,0,0,6.18-3.07,53.37,53.37,0,0,1,8.17-4.47c3.6-1.72,6.71-4.3,10.57-5.55,1.35-.43,2.62-1.46,2.67-2.7a32.68,32.68,0,0,1-2.6-2.85c-.7-1-1.15-2.15-1.81-3.16-.78-1.18-1.22-2.51-2.79-3.23a6.45,6.45,0,0,1-2.57-3.23c-1-2.21-2.09-4.29-3.2-6.4-1.47-2.79-2.57-5.78-4.28-8.5-1.59-2.52-2.74-5.32-4.34-7.84-2-3.23-4.06-6.44-5.05-10.18a2.21,2.21,0,0,0-.66-1.21c-1-.66-1-1.68-1.33-2.63a76.9,76.9,0,0,0-3.31-7.56c-1.72-3.39-3.76-6.62-5.41-10-1.94-4-3.61-8.18-5.4-12.28-.73-1.68-1.48-3.35-2.2-5-1.73.14-1.58,1.26-1.68,2.3-.13,1.29-.71,2.1-2.28,1.56a3.24,3.24,0,0,1-.12-1.15,10.35,10.35,0,0,0-.08-6.62,2.62,2.62,0,0,1,.36-2.35c2.09-1.42,1.39-3.24,1.06-5.06a14.35,14.35,0,0,1-.23-2,7.55,7.55,0,0,0-.88-4c-.55-.91.18-2.56.22-3.89,0-.42-.44-.85-.51-1.29-.27-1.83-.9-3.74-.6-5.47.52-2.92.36-5.46-1.55-7.77a20.5,20.5,0,0,0-3.81,1.19,32.3,32.3,0,0,0-3.35,2.56c-1.59,1.14-2.93.9-4.59-.44-.52-.43-1.42-.38-2.47-.63.09,3.23-.34,6.06,2.2,8.18a1.76,1.76,0,0,1,.34,1.47c-.06.27-.7.51-1.11.59a11.91,11.91,0,0,1-1.94,0c-.55-1.27-1.16-2.5-1.62-3.78-1-2.73-1.63-3.41-4.42-3.22-4.29.29-8.57.83-12.85,1.29-1.48.16-3,.68-4.42.53a12.13,12.13,0,0,0-5.72.62c-1.95.76-3.84,1.68-5.75,2.54,1.06,1.82,2.66,3.41,2.58,5.85-1.4-.68-3-.88-3.8-2.27a10.15,10.15,0,0,0-7.1-5.3,8.54,8.54,0,0,1-2.28-1.06c-.4.69-.62,1.5-1.14,1.85-1,.7-2.1.18-2.87-1.3-.56-1.06-1-2.18-1.45-3.23-1,.11-1.94,1-2.47-.47-.09-.25-.72-.41-1.12-.44-.82-.07-1.66,0-2.44,0-1,1.82-.87,3.07.64,4.46,3.77,3.46,6.51,8,11,10.7.28.17.41.6.61.91,1.19,1.86,2.11,4,3.63,5.54,3.31,3.38,5.22,7.71,8.16,11.32,2.33,2.88,3,6.8,6,9.27a4.58,4.58,0,0,1,1.28,1.79c1.88,4.78,3.7,9.57,5.51,14.37a4.82,4.82,0,0,1,.24,1.65c-.05,5.45,1.89,10.44,3.53,15.49.72,2.19,1.93,4.25,2.45,6.48.7,3.08.9,6.28,1.45,9.4a9.68,9.68,0,0,0,1.45,2.5c-.05.32-.21,1.22-.36,2.06C406,287.92,406,288.05,404.57,290.06ZM376.74,189.9c-2.83.32-3.25.35-3.55-1.61-.57-3.68-2.88-7-2.42-10.87,0-.33-.22-.7-.35-1-1.49-4.21-3.28-8.34-4.39-12.64a137.46,137.46,0,0,0-5.32-16.51c-1.1-2.75-1.79-5.66-2.74-8.73l2.87-.41c-.24-.93-.43-1.64-.62-2.36-.89-3.44-1.76-6.87-2.69-10.3-.2-.76-.7-1.45-.86-2.21s-.39-1.88,0-2.29a10.19,10.19,0,0,1,3.52-2.58c2.85-1.11,5.84-1.84,8.74-2.82,1.4-.47,2.71-1.26,4.12-1.7,6.07-1.86,12.17-3.61,18.23-5.48,1.68-.52,3.73-.89,4.79-2.06,1.48-1.67,2.83-1.08,4.22-.63,3.46,1.12,5,4.22,6.33,7.15a66.61,66.61,0,0,1,2.75,8.22c.75,2.3,1.46,4.61,2.23,6.91.63,1.9,2.13,3.64.92,5.84-.09.16.19.5.25.76.95,4.54,1.48,9.17,3.52,13.43.17.36-.08.91-.09,1.37a13.75,13.75,0,0,0,.07,2.13,30,30,0,0,0,.94,4.64c.75,2.35.48,5,2.42,7,.32.32.05,1.24.05,2.17l-3.55.22c-.4-1.88-.76-3.42-1-5-.51-2.84-1.07-5.67-1.44-8.52-.61-4.71-2.77-9-3.25-13.77-.29-2.85-1.32-5.63-1.91-8.46-.53-2.56-1.72-5-2.1-7.49-.76-5.06-3.92-8.92-5.72-13.71-2.53,1.28-5.76.2-7.33,3.17-3-1.08-5.17,1.13-7.77,1.42.67,2.26.61,2.2-1.16,2.58-3,.63-6,1.42-8.94,2.17s-6.17,1.54-9.23,2.4c-1.62.46-3.17,1.12-4.69,1.67l1.88,2.38-2.36.74c.76,2.95,1.49,5.73,2.2,8.52s1.49,5.77,2.2,8.66q1.41,5.7,2.76,11.4c.93,3.9,3.08,7.63,1.62,11.89-.17.51.22,1.26.43,1.87.59,1.75,1.36,3.46,1.82,5.24.87,3.43,1.57,6.89,2.24,9.91A25.51,25.51,0,0,0,386,185a47.21,47.21,0,0,0,11.53-1.71l-8.2-4c-.93.38-2.28,1-3.69,1.5-2.28.74-3.41.09-4.15-2.16a5.25,5.25,0,0,0-.69-1.54,7.67,7.67,0,0,1-1.23-5.36c.11-1.95.49-2.32,2.36-2.31s3.69,0,5.39,0c2.21-3.76,2.5-4,5.13-4l11.6,0a8.21,8.21,0,0,1,1.4.15c4,.69,8.08,1.35,12.11,2.1,1.36.26,3,.38,4,1.18,1.81,1.45,4.23,2.47,4.73,5.22.19,1.08,1.06,1.5,2.32.9-.5-1.46-1.13-2.9-1.51-4.4-1.88-7.41-3.67-14.85-5.55-22.26-.54-2.16-1.35-4.26-1.87-6.42-.95-4-1.72-8-2.69-12-.37-1.52-1.16-2.94-1.62-4.44a9.49,9.49,0,0,1-.51-3.31c.12-1.33-1-1.81-1.38-2.73-.84-2-1.4-4.21-2.12-6.31-.5-1.47-.77-3.16-1.71-4.29a2.21,2.21,0,0,1-.11-3,8.4,8.4,0,0,1,1.47-1.43c-.6-.38-1-.59-1.33-.84-1.12-.81-2.55-1.42-3.29-2.5-1.95-2.81-2.79-3.34-5.89-2.58-1.39.34-2.7.62-4-.38a2.32,2.32,0,0,0-1.83-.33c-2.87.84-5.71,1.8-8.54,2.74-1.34.44-2.68.91-4,1.43-1.91.75-3.81,1.54-5.7,2.34a33.23,33.23,0,0,1-3.33,1.53c-4.18,1.25-8.39,2.4-12.6,3.56-.8.23-1.67.25-2.45.51a17.12,17.12,0,0,0-3.82,1.56c-2.72,1.74-3.76,4.75-5.22,7.43a4.12,4.12,0,0,0-.06,3.73c2,5.33,3.79,10.71,5.58,16.1.91,2.75,1.59,5.57,2.44,8.34,1.22,3.92,2.59,7.8,3.74,11.75,2.07,7.08,4,14.18,6,21.29a37.59,37.59,0,0,1,.86,4.35c.05.29-.29.65-.47,1l2.53.68c.09.81-.06,1.61.28,2.07a32.17,32.17,0,0,0,3.09,3.52,1.87,1.87,0,0,0,1.27.51c2.56-.14,5.11.4,7.61-1.09a14.43,14.43,0,0,1,5.9-1.63c5.54-.53,11.15,0,16.61-1.78,1.82-.6,4.05,0,6,.1v-5.37c-2.29.42-4.31.71-6.29,1.19-3.07.74-6.11,1.65-9.18,2.42a34.79,34.79,0,0,1-4.4.83,48,48,0,0,1-6.55.46c-2.58-.07-5.15-.48-7.62-.73C376.43,187.78,376.58,188.76,376.74,189.9Zm79.14,147.44c-1.67,0-2.89-.09-4.1,0-1.44.13-1.6.72-1.17,2.09a66.69,66.69,0,0,1,2.49,9.34,7.71,7.71,0,0,0,1.37,3.24,19.78,19.78,0,0,0,2.31,2.79c1.62,1.66,3.11,3.57,5,4.78a14.77,14.77,0,0,0,6.84,2.36c1.64.12,3.22,1.05,4.85,1.13,2.84.13,5.69,1.44,8.56.11.28-.13.74.05,1.1.14,3.95,1,7.86.06,11.76-.32.7-.07,1.4-.82,2-1.39,1.38-1.39,2.7-2.84,4-4.29s2.85-2.56,3.51-4.15c1.78-4.28,3.17-8.73,4.66-13.12a49.63,49.63,0,0,0,2.47-8,132.32,132.32,0,0,1,3.33-14.33c.83-3.06,1.48-6.17,2.31-9.23.75-2.77,1.64-5.51,2.48-8.26.68-2.22,1-4.69,2.18-6.57a30,30,0,0,0,2.61-6.11,8.66,8.66,0,0,1,2.22-3.81c1.38-1.21,2.45-2.54,4.33-3.31,2.32-.95,4.31-2,6.82-.67,1.46.78,2.66-.26,3.76-1.15s.83-1.9.21-3.06a31.66,31.66,0,0,1-3.54,1.16c-2.11.43-4.2.84-6-1a3.68,3.68,0,0,0-4.62-.12c-2.28,1.49-3.49,3.83-4.71,6.09-1.75,3.25-3.25,6.64-4.86,10-.41.83-.92,1.61-1.27,2.47-1.9,4.54-3.93,9-5.59,13.67-1.39,3.86-2.16,7.94-3.54,11.8-.76,2.14.11,4.31-.93,6.52-1.16,2.47-1.38,5.38-2,8.1-1.08,4.68-2.58,9.16-5.52,13.08-.65.87-1.75,1.75-1.21,3.26.15.39-.43,1.18-.85,1.62a15,15,0,0,1-1.92,1.51c.73,3.53-1.52,6.36-5,6.33-2.83,0-5.66-.15-8.48-.23-3.11-.08-6.2-.18-8.95-1.94a4.1,4.1,0,0,0-1.64-.32,11.37,11.37,0,0,1-8.85-5.18,44.52,44.52,0,0,1-3.05-4.63,55,55,0,0,1-2.53-6.5A31.77,31.77,0,0,1,455.88,337.34ZM425.52,179.5l-6.13-7.93c-1.86-.35-3.51-.67-5.16-.95s-3.13-.5-4.7-.72c-.93-.13-1.88-.13-2.78-.33-2.85-.65-5.64-1.3-8.59-.36a5.5,5.5,0,0,1-2.75-.36c-1.12-.28-2.21-.71-3.21-1-.51,1.29-1.3,2.35-1.23,3.35.12,1.83-.86,4.32,2,5.09.05,0,.05.18.07.27.37,1.79,1.83,2.2,3.3,2.48,2.75.53,5.46,1.49,8.33.25a7.1,7.1,0,0,1,3.06-.1,5.32,5.32,0,0,0,4.23-1c.66-.57,1.77-.6,3.09-1-.27,2.73-.48,4.92-.66,6.79a9.93,9.93,0,0,1,2.73.33,2.23,2.23,0,0,0,2.36-.1C421.49,182.72,423.37,181.18,425.52,179.5Zm118,101.68c.75,1.37.83,1.7.36,2-2.7,1.78-5.37,2.12-7.78-.59-1.1.87-1.82,2-3.35,1.07-.4-.24-1.83.71-2.39,1.43s-.58,1.81-.91,3a67.1,67.1,0,0,1,8.33-.13c3.16.1,6.35-.41,9.53-.57,2.06-.11,4.13-.08,6.19-.11a2,2,0,0,0,2.13-2.13c.05-5.81.32-11.64-.89-17.77-1.5,0-3.08,0-4.66,0a3.6,3.6,0,0,0-2.1.48c-1.85,1.71-3.54,1.06-5.42.1-.82-.41-2.29-.7-2.84-.26-1.73,1.37-3.13.59-4.56-.25l-3,2.49c.67.45,1.07.93,1.54,1,2.4.38,4.82.62,7.22,1a9.17,9.17,0,0,1,2.71.7,3.92,3.92,0,0,1,2.44,4C546,278.56,546,280.39,543.55,281.18ZM463.9,323.82a20.31,20.31,0,0,1-3.27,1.67c-3.84,1.13-7.73,2.12-11.59,3.2-1.39.39-2.76.89-4.37,1.42.9,1.5-.27,3.25,1.43,4.36a30.66,30.66,0,0,1,7.11-2.06c3.12-.4,6.12-1.61,9.17-2.5a1.6,1.6,0,0,0,.69-.44c.64-.7,1.26-1.43,2.11-2.39C464.84,326.22,464.41,325.13,463.9,323.82ZM355.75,160.53c-1.64-6.66-3.21-13-4.86-19.71-.33-.13-1.1-.41-1.85-.74s-1.45-.7-2.39-1.16a11.23,11.23,0,0,0-1.29,2.81,5.68,5.68,0,0,0,.38,3.26c1,1.86,2.43,3.49,3.6,5.26a6.42,6.42,0,0,1,1,2.24C351,155.86,353,158.29,355.75,160.53Zm-2.69,9.74c-.55,2.94-.13,5.24,2.13,6.82,1.58,1.11,3.16,2.47,5.66,1.76-2.09-3.6-1.48-7.81-3.59-11.39Zm34.52,6.3c-.11-.74-.23-1.46-.3-2.18s-.13-1.54-.21-2.45c-3.36,2.41-3.64,3.58-1.7,6.34ZM536,292.51c2.71,1.06,5.27.32,7.82-.48C541.26,292.36,538.58,291.16,536,292.51ZM361.36,142.29l.58-.25-.78-2a1.8,1.8,0,0,0-.3,1.38A3.11,3.11,0,0,0,361.36,142.29Z" transform="translate(-14.69 -8.72)"/><path d="M524.59,415.87a23,23,0,0,1,3.31-1.44c5.69-1.37,8.36,1.93,9.85,7.21,1.06,3.74.56,7.46-.19,11.13-.39,1.88-1.87,3.18-3.48,4.22-.29.19-.59.36-1.29.78A8.59,8.59,0,0,0,538,438c3.3-1,6.52-2.22,9.78-3.34.71-.24,1.43-.44,2.25-.7-.83-2.29-2.64-3.7-4.19-5.29a13.11,13.11,0,0,1-3.49-8.16c-.06-.63.63-1.32,1.09-2.22-.64-1.24-.31-4.38,1.26-5.63a5.39,5.39,0,0,1,3.67-.94c2.34.31,4.16,3,4.53,6.07-1.34.68-2.25-.11-3.24-.87-1.66-1.29-2.56-1-2.78,1.07a36.56,36.56,0,0,0,0,5.92,2.72,2.72,0,0,0,.91,1.56,16.23,16.23,0,0,0,2.62,2.14c3.26,2.09,4.75,4.94,4,8.89-1.49.86-2.59,2.49-4.63,2.33a.92.92,0,0,0-.51.22c-4,3-8.61,3.1-13.3,3.13a42.33,42.33,0,0,1-11.11-1.3,4.72,4.72,0,0,1-2.57-1.57c-1.87-2.7-4.74-4.09-7.26-5.93a3.07,3.07,0,0,0-1.88-.27,4.54,4.54,0,0,1-4-1.74c-1.35-1.63-3-3-3.46-5.33a13.1,13.1,0,0,0-1.64-3c-1,2-1.84,3.63-2.62,5.28-1.18,2.53-2.61,3.28-5.39,2.8-2.21-.38-3.55-2.14-3.9-4.52-.47-3.26.12-6.48.16-9.68-2.87-1.41-2.86-1.4-4.6,1.11a24.32,24.32,0,0,1-1.58,1.94c-2.83,3.37-4,7.51-5.47,11.53a52.68,52.68,0,0,1-2.48,5.08c-2.94.7-3.71.27-4-2.67-.32-3.36-.46-6.75-.74-10.12a10.3,10.3,0,0,0-.92-3.47c-1,2-2.76,3.53-2.91,5.94a11.22,11.22,0,0,1-1.07,3.45c-.55,1.34-1.24,2.63-2,4.14-2.12.55-3.35-.11-3.67-2.38-.28-1.93-.36-3.89-.63-5.83-.12-.88-.59-1.71-.75-2.59a20.84,20.84,0,0,1-.75-5.48,8.26,8.26,0,0,0-.84-3.94c-1-2.66-1-3.14.92-5.64,2.86.55,2.52,3.08,2.92,5,.81,3.89,1.42,7.81,2.17,12.05.52-.55.94-.82,1.11-1.19,1.28-2.8,2.48-5.63,3.79-8.41a6.57,6.57,0,0,1,1.55-1.94,1.67,1.67,0,0,1,2.89.7,46.53,46.53,0,0,1,1.54,6.5c.39,2.3.53,4.63.78,6.95.23,0,.54,0,.56-.07.79-2,1.54-4.06,2.31-6.09a4.17,4.17,0,0,1,.4-1c2-2.58,3.61-5.54,6.34-7.51a3.77,3.77,0,0,1,4.45.33l2.43,1.92c.33-.62.63-.93.65-1.26.16-2.8,2.41-3.41,4.43-4s3.65.72,4.93,2.07a7.64,7.64,0,0,1,1.88,4.48c.27,2.13,1.42,4.19,2.42,6.17,1.16,2.29,2.55,4.48,3.88,6.69a6.28,6.28,0,0,0,2,2.13c.48-3.4-.2-7,4.05-8.42.95,1.92.33,3.08-1.1,3.87.33,4.23,3.58,5.4,6.62,6.78,1.67-.61,3.43.94,5.22-.41.82-.62,2.37-.28,3.92-.39.55-2,1.61-4.06,1.58-6.12,0-2.33-1-4.65-1.64-7-.06-.24-.34-.44-.54-.63-2.06-2-5.73-1.12-7,1.9a32.77,32.77,0,0,0-1.27,4.57c-.19.72-.28,1.48-.53,2.18-.81,2.28-1.19,2.43-4,1.52a32.92,32.92,0,0,1,0-4.09c.24-1.93.74-3.84,1.06-5.77a10,10,0,0,0,.07-2.26c-.16-2.62-.31-5.23-.55-7.85-.39-4.29-.9-8.56-1.23-12.86a33.09,33.09,0,0,0-1.71-9c-.83-2.27.75-4.23,1.46-6.25a.94.94,0,0,1,1.77.12,31.6,31.6,0,0,1,1,4.84c.13.72,0,1.48.09,2.19.46,2.66,1,5.3,1.47,8,.35,2.18.56,4.39.81,6.59.12,1.13.2,2.26.26,3.39C524.29,409.48,524.43,412.57,524.59,415.87Zm-27.11-.46c-2,7.63-2,8.52,0,11,1.83-1.7,3.8-3.16,4.16-6,.16-1.27,1.46-2.39,2.37-3.76-.8-.77-1.86-1.79-3-2.87Z" transform="translate(-14.69 -8.72)"/><path d="M179.13,378.32l-1.64.58c-.16,3.16-.32,6.25-.48,9.58l-2.15,1.5a6.07,6.07,0,0,1-1.58-6.59c1-2.82.58-5.67.88-8.5.34-3.12-.81-6-1.12-9a37.67,37.67,0,0,0-2.28-8.63c-.76-2.11-2-4-4.61-4.42a4.74,4.74,0,0,0-3.71.74,16.52,16.52,0,0,1-3.47,1.79c-2.49,1-5.12,1.63-6.93,3.83a1.36,1.36,0,0,1-.46.32,28.9,28.9,0,0,0-4.43,3.46c-1,1.15-2,2.26-2.91,3.44a7.53,7.53,0,0,0-.83,1.71c-.5,1.18-1,2.38-1.61,3.91l1,1.61-1.93,2.72.85,1.76c-2.56.59-2.75,2.5-2.92,4.51-.13,1.57-.62,3.1-.78,4.66a35.48,35.48,0,0,0-.29,6c.28,3.91,3.68,6.45,6.94,7.2,1.18.28,2.4.46,3.55.84A28.79,28.79,0,0,0,159,402.8a17.46,17.46,0,0,1,12.5,4.16,11,11,0,0,1,2.57,2.57q2.82,4.67,5.32,9.5c2.06,4,3.53,8.13,3.06,12.67-.32,3.15-1,6.27-1.5,9.39-.22,1.29-.61,2.55-.89,3.83a11.1,11.1,0,0,1-3.46,5.92c-2.2,2-4.19,4.32-6.59,6.05-2,1.44-4,3.09-6.65,3.47-.82.12-1.53,1-2.36,1.15-1.82.39-3.69.57-5.55.82a5.24,5.24,0,0,0-1.67.17c-2.84,1.57-5.91.8-8.89.93a4.88,4.88,0,0,1-1.88-.45c-1.22-.46-2.43-1-3.6-1.51s-2.7-1-2.71-2.87a1.41,1.41,0,0,0-.45-1c-2.83-2.37-2.85-5.72-3.07-8.95a32.31,32.31,0,0,1,0-6.22c.4-3.24,1.39-4.7,6-4.53a14.25,14.25,0,0,1-1.42,2.36,3.45,3.45,0,0,0-1.07,3.08c.4,2.12-.42,4.61,1.85,6.2.25.17.32.67.35,1,.38,4.23,1,5,5.18,6.36.9.29,1.68,1.19,2.75.36a.85.85,0,0,1,.8.07c2,1.79,4.31,1.14,6.61,1a22,22,0,0,0,9.74-3.14,58.08,58.08,0,0,0,7.06-5,16.25,16.25,0,0,0,4.89-6.7c1.39-3.27,1.4-6.69,2-10.05,1-5.29-1.2-9.57-3.46-14-1.58-3.1-3.09-6.21-5.88-8.43-1.67-1.33-3.43-2.56-5.19-3.77a2.8,2.8,0,0,0-1.38-.22,14.21,14.21,0,0,0-2.26,0c-5.6.58-11.07-.48-16.37-1.94-2.77-.77-5.94-1.65-7.78-4.41a7.58,7.58,0,0,1-.73-1.45,22.37,22.37,0,0,1-1.77-10.69c.31-2.86,1.06-5.67,1.62-8.49.32-1.55.65-3.11,1-4.65,1-4.61,3.34-8.64,5.89-12.55a48.29,48.29,0,0,1,4.58-6.37,22.43,22.43,0,0,1,5.46-4.33,37.64,37.64,0,0,1,8.24-3.59,12.11,12.11,0,0,1,14.17,6.34A32.44,32.44,0,0,1,177,365.64c.13,1.38,0,2.8,1.6,3.58a1.5,1.5,0,0,1,.23,1.43C177.07,373.77,177.07,376,179.13,378.32Z" transform="translate(-14.69 -8.72)"/><path d="M309.15,30c-.25-.38-.35-.46-.34-.53.51-3.87-2.39-5-5.11-5.91-1.3-.45-2.89,0-4.34,0a17.09,17.09,0,0,1-3-.26c-3.49-.7-4.85-.42-6.91,2.7-.42.63-.79,1.28-1.2,1.94a13.6,13.6,0,0,1,.55,2.37c.14,2.33-.92,3.63-3.23,3.76-2.07.11-4,.21-5.88,1.43C278,36.58,275.39,35,275.24,33A38.71,38.71,0,0,1,275.3,25a12.08,12.08,0,0,1,2.09-4.47c1.05-1.65,2.37-3.12,3.51-4.71,1.58-2.19,4.17-2.65,6.35-3.81,3.44-1.83,7.3-1.34,11-1.84,1.28-.17,2.71.55,4,1,2.73.85,5.47,1.69,8.14,2.72.65.25,1,1.18,1.83,2.14.45-.25,1.35-.45,1.73-1,3.52-5.15,8.23-7.12,14.13-6a14.81,14.81,0,0,0,4.79.11c2.92-.43,5.26.92,7.24,2.54a49.83,49.83,0,0,1,6.1,6.54,6.33,6.33,0,0,1,1.43,3A7.15,7.15,0,0,0,349,24.74c1.44,1.93-.23,8.07-3.62,8-2.81,0-4-1.47-3-4.11.12-.34.31-.65.68-1.43.77,1,1.35,1.68,2,2.53.9-.4,1.37-1,.67-1.89-1.08-1.32-1.09-2.88-1.45-4.41a11.14,11.14,0,0,0-2.09-4.5c-1.51-1.83-3.51-3.25-5.19-5s-3.63-1.61-5.47-1.65c-1.48,0-2.9-.16-4.36-.31a11.81,11.81,0,0,0-11.52,6.34,14.6,14.6,0,0,0-2.46.55c-1.71.67-3.17.73-3.88-.59-1.38-2.53-3.8-3.31-6.14-4a21.63,21.63,0,0,0-17.24,2c-1.55.86-2.61,2.62-3.83,4a2,2,0,0,0-.45,1.31c.05,1.92.24,3.72-1.85,5-.88.55.13,4.23,1.09,4.91,1.11.8,3.12.2,3.08-1.09-.08-2.58,1.65-4.11,2.91-5.94a19.24,19.24,0,0,1,2.23-2.84,4.63,4.63,0,0,1,2.13-1.18,13.82,13.82,0,0,1,3.09-.23c2.55,0,5.09,0,7.63,0a7.61,7.61,0,0,1,5,1.38c.79.61,1.92.79,2.68,1.42a12.19,12.19,0,0,1,1.85,2.39c.85,1.17,1.28,3,3.19,2.67a4.66,4.66,0,0,0,3.42-3,21.08,21.08,0,0,1,2.39-4.07c1.26-1.73,3.2-2.54,5.15-3.23a2.91,2.91,0,0,1,1.1,0c1.68.13,3.35.36,5,.39a5,5,0,0,1,4,1.61,6.75,6.75,0,0,0,2.11,1.22c1.31.64,2.36,1.37,2.51,3.05.19,2.12.69,4.21.91,6.32.05.49-.5,1.43-.84,1.47a2.36,2.36,0,0,1-1.91-.67,16.23,16.23,0,0,1-2.29-4.43,6.49,6.49,0,0,0-4.49-4.89c-1.48-.51-2.72-1.59-4.46-1.44s-4.53,2.41-5.13,4.09c-.68,1.9-1.55,3.74-2.42,5.57a1.71,1.71,0,0,1-1.07.82c-1.73.34-3.48.59-5.22.83-.25,0-.7-.1-.76-.27C312.06,29.8,310.4,30.3,309.15,30Z" transform="translate(-14.69 -8.72)"/><path d="M426.33,432.55c-.72,1.09-1.15,1.75-1.74,2.63a8.81,8.81,0,0,0,1.92.48,4.24,4.24,0,0,1,3.1,1.06c.55.52,1.41,1.44,2.37.25.1-.12,1.25.24,1.31.52.42,1.82,1.63,1.69,2.74,1a8.15,8.15,0,0,1,7.31-.93,3.23,3.23,0,0,0,1.87-.4c2.73-1,4.75-2.68,5.44-5.76,1-4.33.26-8.42-.75-12.67a27.71,27.71,0,0,0-5.32-10.37c-2.47-3.27-5.64-5.94-10.08-6.45-3.05-.36-6.09-.88-9.12-1.4-3.91-.65-7.54-5.24-7.93-9.12-.45-4.44,1.24-8.22,2.75-12.14a60.22,60.22,0,0,1,6.31-11.42,6.88,6.88,0,0,1,5.67-3.53c1.13,0,2.27.07,3.4,0a4.58,4.58,0,0,1,4.91,3c.75,1.64,2.55,2.93,1.75,5.22-1.83.82-2.71-.59-3.56-1.76-1.4-1.94-3.8-3.26-5.7-2.36-1.39.65-2.42,2.12-3.52,3.3-.36.37-.3,1.17-.68,1.49-2.72,2.33-3.92,5.59-5.21,8.73a67.51,67.51,0,0,0-2.5,8.28,2.93,2.93,0,0,0,.44,1.79,8.62,8.62,0,0,0,7.57,4.89,62.42,62.42,0,0,1,8.3,1.22c1.33.3,2.5,1.27,3.78,1.86a19.74,19.74,0,0,1,10.27,11,63.78,63.78,0,0,1,2.89,8.45,28.61,28.61,0,0,1,.88,11.69c-.61,3.59-2,7.17-5.17,9.47-2.32,1.69-5.2,2-8,2.15-2.45.17-4.91,0-7.37,0a6.67,6.67,0,0,1-4.2-1.06c-1.3-.91-3.18-1-4.79-1.45a18.08,18.08,0,0,1-2.88-1.07c-1.89-1-2.33-1.85-2-3.52a4,4,0,0,1,3.61-3.33A14.57,14.57,0,0,1,426.33,432.55Z" transform="translate(-14.69 -8.72)"/><path d="M186.42,427.87c-2.2-1.5-2.2-1.5-1-5.55,3.65.07,4.6.76,5.92,3.92a24.85,24.85,0,0,0,2.05,3.23c.3,7.33,2.85,14.63,4.37,22.63,2.49-2.6,4.26-4.92,5-8a35.05,35.05,0,0,1,2-5.16c1.32-3.2,2.8-6.35,3.95-9.61.48-1.38,1.06-2.14,2.51-2.1,1.61,0,1.53,1.39,1.83,2.41,1.45,5,2.88,10,4.33,15a13.44,13.44,0,0,0,.75,1.53,20.47,20.47,0,0,0,.83-2.16c1.21-5.08,2.38-10.16,3.59-15.23q.67-2.85,1.5-5.65c.55-1.88,1.23-3.72,1.8-5.6.89-2.93,2.6-3.38,4.77-1.22,3.41,3.4,4.14,5.38,3.5,9.54-1.61.17-1.86-1.36-2.58-2.18a26.32,26.32,0,0,1-2.11-3.38,59.59,59.59,0,0,0-2.24,6c-1.51,5.94-2.85,11.93-4.29,17.89-.63,2.6-1.41,5.18-1.95,7.8a23.57,23.57,0,0,0-.16,3.95c0,1.23-.36,2.26-1.83,2.41a2.41,2.41,0,0,1-2.67-2c-1.61-6-3.19-12.07-4.8-18.09a17,17,0,0,0-.78-1.88,26.23,26.23,0,0,0-3.51,8c-1.43,4.6-3.4,8.89-6.89,12.32a7.19,7.19,0,0,1-2.14,1.35c-1.55.7-2.61.41-3.25-1.1a17.23,17.23,0,0,1-1.31-4.54c-.41-3.25-1.27-6.39-1.92-9.58-.75-3.75-2-7.36-2.78-11.09a5.29,5.29,0,0,0-2.49-3.91Z" transform="translate(-14.69 -8.72)"/><path d="M288.18,416.13c2,3.2,2.86,6.31,1.56,9.51s-.48,5.7,1.5,8.17a27.69,27.69,0,0,1,4.55,9.24c.76,2.39,0,3.54-2.34,4.47a18.19,18.19,0,0,1-14.45-.28,2.81,2.81,0,0,0-3.54.51c-2.91,2.62-7,1.64-9.35-.81-3.27-3.37-3.13-7.39-2.35-11.53.45-2.38,1.16-4.72,1.54-7.1a8,8,0,0,1,3.29-5c2.19-1.79,4.84-.82,5.8,1.88a18.29,18.29,0,0,1,.73,7.23,6,6,0,0,1-.61,2.13c-.81,1.73-1.59,3.41.08,5.09a2.16,2.16,0,0,1,.35.75c.81,2.29.78,2.25,2.51.78,2.76-2.34,4.51-5.38,6.28-8.45a3.78,3.78,0,0,0,.35-3.43c-.81-2.37-1.47-4.7-.72-7.35a6.09,6.09,0,0,1,1.72-3C286,418,287,417.15,288.18,416.13Zm-6.79,29.47c1.57-1.7,3.53-1.64,5.49-1.19a4.32,4.32,0,0,0,4.13-1.23,14.1,14.1,0,0,0-4.49-8.05c-1.33,1.75-2.42,3.25-3.58,4.71s-3.07,2.48-3.66,4.61Zm-11.55-19.84c-1.43.69.33,2.78-1.46,3.28,1,1.33-.2,2.31-.62,3.33-.77,1.89-.52,3.72-.46,5.7,3.45-.67,3.44-3.55,4.2-5.67A5.94,5.94,0,0,0,269.84,425.76ZM268,441.85c1.4,3.76,3.9,4.78,6,2.47-1-1.13-2.11-2.26-3.12-3.36Z" transform="translate(-14.69 -8.72)"/><path d="M338.2,46.32c-1.47-.27-2.76-.42-4-.75a4.81,4.81,0,0,1-2.5-1.11c-2.25-2.88-5-2.06-7.64-1.13a9.27,9.27,0,0,0-3.21,2.14c-1.88,1.83-3.84,2.47-6.36,1.38A36.93,36.93,0,0,0,303.42,44c-2.08-.2-3.73.85-5.16,2.29-4.41,4.47-9.06,2.46-11.42-1s.18-9.21,4.09-10a54,54,0,0,1,5.56-.6c.65-.06,1.42.16,1.95-.11a2.67,2.67,0,0,1,3.7.86c.27.31.9.66,1.21.55,1.64-.59,3,.35,4.32.86,3,1.16,5.46.12,7.82-1.6.38-.27.66-.68,1.05-.93a10.83,10.83,0,0,1,6.81-2.2c3.42.21,6.87,0,10.3.1a4.83,4.83,0,0,1,4.23,2.88,6.76,6.76,0,0,0,1.42,2.36c2,1.49,1.5,3.48,1.34,5.4,0,.48-.49,1.33-.77,1.33C338.44,44.25,338.89,45.63,338.2,46.32Zm-43.58-.68a12.8,12.8,0,0,1,2.3-2.49c1.86-1.11,3.86-2.24,6.1-1.85,3.73.65,7.7.36,11.11,2.5a2.36,2.36,0,0,0,.75.36c1.38.27,2.6.37,3.75-.93,2.16-2.44,5.34-2.81,8.32-3.41,1.68-.34,3.31-.74,4.79,1.08.59.74,2,1.11,2.87,2s2.33.32,3-.55.63-1.87-.16-2.22c-1.44-.63-1.59-2-2.19-3A3,3,0,0,0,333,35.22a31.34,31.34,0,0,0-10.54,0,7.44,7.44,0,0,0-3.3,1.32,25.4,25.4,0,0,1-6.09,3.36c-4.75,1.7-8.65-1.69-13.06-1.78-.14,0-.26-.28-.43-.35a2.38,2.38,0,0,0-1-.3c-1.87.12-3.75.29-5.62.46a4.11,4.11,0,0,0-3,5.93C291.11,45.8,291.86,46.15,294.62,45.64Z" transform="translate(-14.69 -8.72)"/><path d="M363.16,438.09a17,17,0,0,0,12,5.23c-1.24-4.15-3-8-3.05-12.36,0-1.95-.44-3.9-.49-5.86a4.19,4.19,0,0,1,.65-2.66c2.48-2.78,4.93-5.69,8.94-6.33a19,19,0,0,1,4.15-.47c1,.07,2.34.48,1.64,2.26a28,28,0,0,0-3.29.46c-3.55,1-5.87,3.54-7.9,6.4a3,3,0,0,0-.24,1.9c.47,4.35.75,8.72,3,12.68a23.25,23.25,0,0,1,1.85,4.94c.51,1.68,0,2.35-1.63,2.41-6.55.21-12.68-.85-17.71-5.56-3.81-3.58-5.68-7.68-4.52-13a10.49,10.49,0,0,1,4.19-6.74c2-1.41,3.42-.93,4.81,1.05,1.72,2.44,1.81,4.93,1,7.71S365.24,435.73,363.16,438.09Zm-.32-12.86c-3.55,3.84-3.62,3.38-1.87,9.27C362.54,431.51,363.92,428.63,362.84,425.23Z" transform="translate(-14.69 -8.72)"/><path d="M336.09,59.71A50.24,50.24,0,0,1,335,65.44c-.58,1.92-2.5,2.51-4.31,1.51s-3.61-2.24-5.51-3.16a7.89,7.89,0,0,0-3.25-.71c-3,0-6,.22-9,.25A6,6,0,0,0,309,64.65a9.76,9.76,0,0,1-13.78-2.15,3.83,3.83,0,0,1,2-5.79,48.39,48.39,0,0,1,9.21-2.85c.69-.11,1.27-.79,2-1,5-1.74,10.06-3.63,15.45-1.34.85.35,1.83.38,2.7.7a21.73,21.73,0,0,1,8.61,5.94A6,6,0,0,1,336.09,59.71Zm-10.2-4.3c-3.75-2.49-7.81-1.89-11.87-1.18a13.39,13.39,0,0,0-3.49,1A40.31,40.31,0,0,1,301,58.79c-.52.1-1.38.78-1.34,1.1a6.43,6.43,0,0,0,1,2.83c.43.63,1.27.63,1.94-.07a1.09,1.09,0,0,1,1.06-.08c1.43,1.16,2.56.34,3.44-.64,1.81-2,4-2.08,6.43-1.73a19,19,0,0,0,5.27-.1,14.71,14.71,0,0,1,10.35,2.46c.95.61,1.82,1.18,2.91.83-.27-4.87-4.13-3.74-6.85-4.12C324.88,57,324.88,57,325.89,55.41Z" transform="translate(-14.69 -8.72)"/><path d="M244.86,438.47c2.74-.38,2.91-.28,3.6,1.72s1.52,4.3,2.25,6.36a24.39,24.39,0,0,0,4.35-1,3.25,3.25,0,0,0,1.63-2,21.86,21.86,0,0,0,.25-4.22,8,8,0,0,1-.07-1.68c1.1-4.2-2.28-6.21-4-9.24-2.79,2.41-2.35,5.77-3.59,8.4-2-.9-2.91-2.7-2.37-4.35.37-1.15.63-2.34,1-3.49.61-1.86,1.55-3.46,3.73-3.74s4.11-.31,5.69,1.92c4.39,6.18,4.2,12.78,2.26,19.59-.61,2.12-3.08,3.23-5.34,2.77a8.23,8.23,0,0,0-1.4-.16c-2.66-.09-3.05.51-2.56,3.2a22.23,22.23,0,0,1,.26,4.76c-.09,2.61-.42,5.22-.5,7.84-.1,3.46-.06,6.92-.07,10.39,0,1.28-1,2-2.05,1.3-.68-.46-1.6-1.19-1.64-1.84-.13-2.31-1.33-4.5-.54-6.93a14.92,14.92,0,0,0,.3-4.19c0-2.83-.06-5.66,0-8.49.09-2.64.6-5.3.43-7.91-.12-1.92.61-4.06-1-5.8a3.66,3.66,0,0,1-.47-1.61C245,439.58,244.94,439.12,244.86,438.47Z" transform="translate(-14.69 -8.72)"/><path d="M333.87,76.07c.43,3.49-2.64,8.11-6,9-1.59.4-2.88-.07-3.38-1.7a3.4,3.4,0,0,0-2.25-2.22c-1.26-.58-2.38-1.44-3.6-2.12-.62-.35-1.48-1-1.93-.78-2,.88-4.39.82-6.21,2.36-1.58,1.34-1.68,1.22-2.22,3.35h-8a14.82,14.82,0,0,1,.11-7c.91-3.39,3.52-5,6.31-6.5,1.31-.69,2.71-1.18,4-1.82,2.75-1.3,5.54-.35,8.29-.11a45.47,45.47,0,0,1,5.5,1,9.25,9.25,0,0,1,6.37,4.11C331.49,74.6,332.71,75.16,333.87,76.07Zm-3.41,2.1c-1.49-.94-2.61-1.33-3-2.93s-2.05-2.59-3.86-2.81a19.37,19.37,0,0,1-3.92-.43c-3.38-1.16-6.61-.47-9.8.54s-4.2,3.84-2.37,6.72c1.51-1.61,3.41-2.28,5.48-3,3.35-1.11,6.24-1.55,8.94,1.14a2.2,2.2,0,0,0,.95.56,6.68,6.68,0,0,1,4.73,4.13Z" transform="translate(-14.69 -8.72)"/><path d="M326.14,418.83a32.69,32.69,0,0,0,2.12,4.18c3.46,4.79,3.73,10,2.08,15.41a7.78,7.78,0,0,0-.46,1.33c-.25,2.54-1.69,3.82-4.05,4.74-2.82,1.09-6.49.26-7.95-2.45a17.61,17.61,0,0,1-1.65-12c.57-2.89,2-5.6,3-8.39a8.67,8.67,0,0,0,.5-1.86c.28-2.16.82-2.57,2.92-2.1a7.64,7.64,0,0,1,.8.29Zm-2.44,4.89a4.42,4.42,0,0,0-3.15,4,25.12,25.12,0,0,0-.6,6.42c.21,1.83.07,3.9,1.65,5.49.77.78,1.41,1.75,2.51,1.31s2.21-1.14,2.48-2c1.26-4,1.87-8.05-.91-11.81A35.44,35.44,0,0,1,323.7,423.72Z" transform="translate(-14.69 -8.72)"/><path d="M339.42,422.12l4.16,1.48c1,1.59-1.29,1.46-1.41,2.59,2.82,3.06,1.49,7.38,3.29,11.45.6-1.93,1.08-3.39,1.51-4.86.53-1.79,1-3.6,1.54-5.39.42-1.43.81-2.88,1.35-4.27.47-1.2,1.12-2.33,1.67-3.46h2.91c-.19,1-.28,1.8-.49,2.57-.79,2.88-1.55,5.77-2.45,8.61-.85,2.65-1.86,5.25-2.84,7.85-.65,1.75-1.38,3.47-2.08,5.19-.89,2.16-.92,2.17-3.69,2.13a32.17,32.17,0,0,1-1.65-6.35c-.63-3.76-.36-7.63-1.71-11.33C338.9,426.59,339.42,424.44,339.42,422.12Z" transform="translate(-14.69 -8.72)"/><path d="M324.31,91a9.76,9.76,0,0,1-3.51,7.91c-1.72,1.6-7.09,1.92-8.82.37a5.16,5.16,0,0,1-1.69-3.1c-.19-2.89-.69-5.86.44-8.66a33.83,33.83,0,0,1,2.17-3.83c1.13-2,3-1.87,4.74-1.44C321.25,83.09,324.31,87.22,324.31,91Zm-7.83,5.94c3.49-3.38,3.29-8.28-.3-11.15-.74,2-2.87,3.1-2.72,5.63A6.86,6.86,0,0,0,316.48,96.9Z" transform="translate(-14.69 -8.72)"/><path d="M238.86,453c-2.94.24-2.93.18-3.41-1.76-1-4.28-.42-8.61-.49-12.92,0-1,.89-2,1-3s-.46-2.2-.44-3.29a12.8,12.8,0,0,1,.62-3.57,1.94,1.94,0,0,1,1.31-1.11c.47,0,1.36.49,1.43.88a23.82,23.82,0,0,1,.45,4.69c0,1.48-.4,3-.42,4.45-.07,4.24,0,8.48,0,12.73Z" transform="translate(-14.69 -8.72)"/><path d="M240.41,405c1.71,2.9,1.13,5.62.83,8.28,0,.41-.82.74-1.6,1.4a25.51,25.51,0,0,1-.19-2.69,3.21,3.21,0,0,0-1-2.77,2.33,2.33,0,0,1-.65-3.05C238.26,405.55,239.47,405.43,240.41,405Z" transform="translate(-14.69 -8.72)"/><path d="M798.54,274v3c-1.31-.15-2.26-.47-2.13-1.94S797.49,273.88,798.54,274Z" transform="translate(-14.69 -8.72)"/><path d="M186.34,427.78a4.89,4.89,0,0,1,.21,1.57c-.06.28-.69.61-1,.58a1.28,1.28,0,0,1-1-.71,1.33,1.33,0,0,1,.56-1.09,3.72,3.72,0,0,1,1.34-.26A.76.76,0,0,1,186.34,427.78Z" transform="translate(-14.69 -8.72)"/><path d="M211.84,208.26l-1.68-.88c-1.82,1.73-.5,3.92-.44,6-2.41-.63-2.46-.76-2.66-6.41a20.07,20.07,0,0,1-2.22-3.07,59.21,59.21,0,0,1-2.43-6.24,2.41,2.41,0,0,1,.38-2c.22-.27,1.18.05,1.8.14.17,0,.3.27.47.3,3.19.62,4.06,3.07,4.71,5.79a9.25,9.25,0,0,0,1.25,2.44C211.7,205.44,212.63,206.46,211.84,208.26Z" transform="translate(-14.69 -8.72)"/><path d="M398.82,205.82c-.55.14-1.34.4-2.16.54-1.34.21-2.38-.93-1.69-2,1.55-2.45,3.14-5,6.24-5.76a8.17,8.17,0,0,1,1.8,0,2.33,2.33,0,0,1-.73,3.07A37.7,37.7,0,0,0,398.82,205.82Z" transform="translate(-14.69 -8.72)"/><path d="M389.56,147.54c-2,1.47-2.79,3.1-2.29,5.22a10.25,10.25,0,0,1,2.73.05,10.06,10.06,0,0,1,2.29,1.42c.34,1.54-.93,1.85-2,2a2.83,2.83,0,0,0-2.51,2.25,36.63,36.63,0,0,1-2.06,4.19c-.8,0-1.88.64-2.41-.88a1.26,1.26,0,0,0-.78-.66c-4.34-1.08-7.26-3.89-10-7.33s-2.39-7.23-1.4-11a4.64,4.64,0,0,1,2.46-2.49c3.48-1.63,7.07-3,10.62-4.49.26-.11.5-.27,1-.51-.23-3.72-.46-7.53-.7-11.38,2.5-1.14,4.11.36,5.48,1.53a68.31,68.31,0,0,1,5.83,6.07,12.74,12.74,0,0,0,5.6,3.28c-.16,1.61-.5,3.2,1.94,3.81,1.09.28,1.95,1.9,2.64,3.07.39.64.53,1.74-.77,1.92a9.61,9.61,0,0,1,.69,2.62c0,.58-.67,1.16-1,1.73a13.51,13.51,0,0,1-1.51-1.31c-.2-.22-.17-.66-.29-1.2-2.64,2.85-3.56,6.28-4.54,9.58-1.85,1.1-3.31.8-4.41-.92s-3.45-3-3.79-5.44C390.28,148.25,389.82,147.9,389.56,147.54Zm-3.67,7.76c-2.56-.85-2.74-2.88-2.32-4.86a8.92,8.92,0,0,1,3.26-5.31c1.21-.93,4.17-.61,5.25.49l4,4.13c.6-1.44,1.38-2.57,1.47-3.75a4.22,4.22,0,0,1,1.86-3.26,12.44,12.44,0,0,0,1.18-1.27L388.33,130a7.6,7.6,0,0,0-.08,3.69c.63,2.93-.13,4.61-2.78,5.75-.6.26-1.23.46-1.83.7-2.62,1.06-5.32,1.94-7.81,3.22-2.83,1.46-3,6.82-.48,8.77.89.69,1.71,1.48,2.88,2.49,2.07-.51,3.13,1.29,4,3C384.12,158.07,385,157,385.89,155.3Z" transform="translate(-14.69 -8.72)"/></g></g></g></svg>